# xmcd
#
# Track frame offsets: 
#        150
#        13099
#        24673
#        34453
#        45280
#        53386
#        65558
#        74827
#        87143
#        98400
#        107474
#        117651
#        129644
#        141446
#        151953
#        162432
#        174606
#        183225
#        196630
#        211562
#        233044
#        244980
#        255705
#        265868
#
# Disc length: 3694 seconds
#
# Revision: 0
# Processed by: cddbd v1.5.2PL0 Copyright (c) Steve Scherf et al.
# Submitted via: ExactAudioCopyFreeDBPlugin 1.0
#
DISCID=490e6c18
DTITLE=Various Artist - Unlock The Lock: The Kent Records Story Vol. 
DTITLE=1 [CD1]
DYEAR=2015
DGENRE=R&B
TTITLE0=B.B. King - Why Do Everything Happen To Me
TTITLE1=Danny Boy - All Of Me
TTITLE2=The Barker Brothers - Hey Little Mama
TTITLE3=Etta James - Baby, Baby Every Night
TTITLE4=Don Cole - Sweet Lovin' Honey
TTITLE5=Flash Terry and His Orchestra - On My Way Back Home
TTITLE6=Lee Denson - Devil Doll
TTITLE7=Sonny Knight - Madness
TTITLE8=Van Robinson - Basis Of Rock 'n' Roll
TTITLE9=Chuck Tequila Rio - Bye Bye Baby
TTITLE10=Artie Wilson - That's My Baby
TTITLE11=Floyd Dixon and His Orchestra - Dance The Thing
TTITLE12=B.B. King - Please Accept My Love
TTITLE13=Jesse James - Red Hot Rockin' Blues
TTITLE14=Betty and Dupree - If It Ain't One Thing
TTITLE15=Van Robinson - You You You
TTITLE16=Jesse James - South's Gonna Rise Again
TTITLE17=B.B. King - Worry Worry
TTITLE18=The Senders - The Ballad Of Stagger Lee
TTITLE19=Hadda Brooks - The Thrill Is Gone
TTITLE20=B.B. King - The Fool
TTITLE21=The Senders - Everybody Needs To Know
TTITLE22=Jesse Belvin - (I Love You) For Sentimental Reasons
TTITLE23=B.B. King - Mean Ole Frisco
EXTD=
EXTT0=
EXTT1=
EXTT2=
EXTT3=
EXTT4=
EXTT5=
EXTT6=
EXTT7=
EXTT8=
EXTT9=
EXTT10=
EXTT11=
EXTT12=
EXTT13=
EXTT14=
EXTT15=
EXTT16=
EXTT17=
EXTT18=
EXTT19=
EXTT20=
EXTT21=
EXTT22=
EXTT23=
PLAYORDER=
